<svg width="70" height="70" viewBox="0 0 70 70" fill="none" xmlns="http://www.w3.org/2000/svg">
<path fill-rule="evenodd" clip-rule="evenodd" d="M27.7084 61.25H41.5625V64.1667H27.7084V61.25Z" fill="#4A6641"/>
<path fill-rule="evenodd" clip-rule="evenodd" d="M36.4583 55.4167C36.8451 55.4167 37.216 55.5703 37.4895 55.8438C37.763 56.1173 37.9167 56.4882 37.9167 56.875V62.7083C37.9167 63.0951 37.763 63.466 37.4895 63.7395C37.216 64.013 36.8451 64.1667 36.4583 64.1667C36.0716 64.1667 35.7006 64.013 35.4271 63.7395C35.1536 63.466 35 63.0951 35 62.7083V56.875C35 56.4882 35.1536 56.1173 35.4271 55.8438C35.7006 55.5703 36.0716 55.4167 36.4583 55.4167Z" fill="#4A6641"/>
<path fill-rule="evenodd" clip-rule="evenodd" d="M24.7917 33.5417C25.1785 33.5417 25.5494 33.6953 25.8229 33.9688C26.0964 34.2423 26.25 34.6132 26.25 35C26.25 43.9483 33.0371 51.0417 41.2184 51.0417C45.7596 51.0417 49.8517 48.8717 52.6109 45.4023C52.7302 45.2524 52.8779 45.1275 53.0454 45.0348C53.213 44.942 53.3972 44.8831 53.5875 44.8615C53.7779 44.8399 53.9706 44.856 54.1547 44.9089C54.3388 44.9617 54.5107 45.0504 54.6606 45.1697C54.8104 45.289 54.9353 45.4367 55.0281 45.6042C55.1209 45.7718 55.1798 45.956 55.2014 46.1464C55.223 46.3367 55.2069 46.5294 55.154 46.7135C55.1011 46.8976 55.0125 47.0695 54.8932 47.2194C51.628 51.3217 46.725 53.9583 41.2184 53.9583C31.255 53.9583 23.3334 45.3833 23.3334 35C23.3334 34.6132 23.487 34.2423 23.7605 33.9688C24.034 33.6953 24.4049 33.5417 24.7917 33.5417Z" fill="#4A6641"/>
<path fill-rule="evenodd" clip-rule="evenodd" d="M20.3817 16.0417C19.7898 16.0417 19.2064 16.1831 18.6802 16.4542C18.1539 16.7252 17.7001 17.1181 17.3564 17.6C17.0127 18.0819 16.7891 18.639 16.7043 19.2248C16.6194 19.8107 16.6757 20.4083 16.8686 20.9679L17.7027 23.3873C18.5646 25.8854 18.6506 28.5848 17.9536 31.1325L17.2317 33.7662C15.9163 38.5685 15.6727 43.4306 18.2481 46.986C21.9334 52.0771 28.054 55.4167 35 55.4167C44.9663 55.4167 53.2161 48.5435 55.0404 39.515C55.5377 37.0475 56.2771 34.3846 57.855 32.114L40.1392 34.9679C38.4032 35.2478 36.6232 34.9982 35.0312 34.2516C33.4392 33.5051 32.1091 32.2961 31.2142 30.7825L23.5798 17.866C23.2512 17.3103 22.7834 16.8498 22.2226 16.5299C21.6618 16.21 21.0273 16.0417 20.3817 16.0417V16.0417ZM14.1109 21.9187C12.6277 17.6123 15.8273 13.125 20.3831 13.125C22.7281 13.125 24.8996 14.3646 26.0925 16.3815L33.7269 29.2979C34.3233 30.3072 35.21 31.1133 36.2714 31.6112C37.3327 32.1091 38.5195 32.2757 39.6769 32.0892L58.0227 29.1331C60.3998 28.7496 62.0186 31.4796 60.5427 33.3827C59.1281 35.2071 58.415 37.539 57.9002 40.091C55.7929 50.5225 46.3138 58.3333 35 58.3333C27.1046 58.3333 20.1104 54.5315 15.8856 48.6967C12.4965 44.0154 13.0477 37.9998 14.4186 32.9948L15.1404 30.3625C15.6838 28.3806 15.6162 26.2809 14.9465 24.3381L14.1123 21.9187H14.1109Z" fill="#4A6641"/>
<path fill-rule="evenodd" clip-rule="evenodd" d="M22.0004 8.75C23.8379 6.9125 26.9792 8.21334 26.9792 10.8121V13.125H29.2921C31.8909 13.125 33.1917 16.2663 31.3542 18.1038L28.7394 20.7185C28.4644 20.9842 28.096 21.1312 27.7136 21.1279C27.3312 21.1245 26.9655 20.9712 26.6951 20.7008C26.4247 20.4304 26.2713 20.0646 26.268 19.6823C26.2647 19.2999 26.4117 18.9315 26.6773 18.6565L29.2921 16.0417H26.9792C26.2056 16.0417 25.4638 15.7344 24.9168 15.1874C24.3698 14.6404 24.0625 13.8986 24.0625 13.125V10.8121L11.5413 23.3333H15.3125C15.6993 23.3333 16.0702 23.487 16.3437 23.7605C16.6172 24.034 16.7709 24.4049 16.7709 24.7917C16.7709 25.1784 16.6172 25.5494 16.3437 25.8229C16.0702 26.0964 15.6993 26.25 15.3125 26.25H11.5413C8.94253 26.25 7.6417 23.1088 9.4792 21.2713L22.0004 8.75Z" fill="#4A6641"/>
<path d="M21.875 18.9583C21.875 19.3451 21.7214 19.716 21.4479 19.9895C21.1744 20.263 20.8035 20.4167 20.4167 20.4167C20.0299 20.4167 19.659 20.263 19.3855 19.9895C19.112 19.716 18.9584 19.3451 18.9584 18.9583C18.9584 18.5716 19.112 18.2006 19.3855 17.9271C19.659 17.6536 20.0299 17.5 20.4167 17.5C20.8035 17.5 21.1744 17.6536 21.4479 17.9271C21.7214 18.2006 21.875 18.5716 21.875 18.9583V18.9583Z" fill="#4A6641"/>
</svg>
