<svg width="25" height="25" viewBox="0 0 25 25" fill="none" xmlns="http://www.w3.org/2000/svg">
<g clip-path="url(#clip0_28_2)">
<path d="M15.9073 13.7604C16.4706 13.9376 17.0103 14.1825 17.5146 14.4896L17.4823 14.4708C18.0334 14.7156 18.5094 15.0021 18.9438 15.3386L18.9282 15.3271C18.949 15.3906 18.9615 15.4625 18.9615 15.5386L18.9605 15.5719V15.5708C18.9448 16.0177 18.8459 16.4375 18.6782 16.8198L18.6865 16.7979C18.4459 17.2802 18.0448 17.6521 17.5542 17.85L17.5396 17.8552C17.032 18.1206 16.4706 18.267 15.898 18.2833H15.8917C14.7987 18.1428 13.7425 17.7957 12.7792 17.2604L12.824 17.2833C11.8009 16.8199 10.8705 16.1743 10.0782 15.3781L10.0771 15.3771C9.21294 14.4773 8.42938 13.5034 7.73546 12.4667L7.6865 12.3896C6.99788 11.4894 6.59837 10.4017 6.54067 9.2698L6.53963 9.25626V9.12709C6.55491 8.6436 6.66844 8.16827 6.87331 7.73006C7.07818 7.29184 7.3701 6.89991 7.73129 6.57814L7.73442 6.57501C7.95753 6.3527 8.25805 6.2254 8.57296 6.2198H8.574C8.67921 6.22293 8.78025 6.23126 8.87817 6.24584L8.86463 6.24376C8.95525 6.2573 9.06046 6.26564 9.16879 6.26772H9.17192C9.32358 6.25297 9.47572 6.29046 9.60317 6.37397L9.60109 6.37293C9.71254 6.49584 9.79796 6.6448 9.849 6.80834L9.85108 6.81668C9.9372 7.03195 10.115 7.50557 10.3844 8.23751C10.525 8.56459 10.6625 8.96772 10.773 9.3823L10.7875 9.44793C10.7124 9.81047 10.5167 10.1369 10.2323 10.374L10.2292 10.3761C9.85768 10.7691 9.67192 11.0191 9.67192 11.1261C9.67589 11.2137 9.7052 11.2984 9.75629 11.3698L9.75525 11.3688C10.1581 12.2016 10.7152 12.9506 11.3969 13.5761L11.4021 13.5813C12.1158 14.2242 12.9159 14.7641 13.7792 15.1854L13.8407 15.2125C13.9462 15.281 14.0681 15.3202 14.1938 15.3261H14.1959C14.3577 15.3261 14.6487 15.0649 15.0688 14.5427C15.4889 14.0205 15.7681 13.7594 15.9063 13.7594L15.9073 13.7604ZM12.6292 22.3188H12.6521C14.0199 22.3207 15.3731 22.0372 16.625 21.4865L16.5615 21.5115C19.0157 20.4761 20.9292 18.5625 21.9396 16.174L21.9646 16.1083C22.475 14.949 22.7719 13.5969 22.7719 12.1761C22.7719 10.7552 22.475 9.40314 21.9396 8.17918L21.9646 8.24376C20.9292 5.78959 19.0157 3.87605 16.6271 2.86563L16.5615 2.84063C15.4021 2.33022 14.05 2.03334 12.6292 2.03334C11.2084 2.03334 9.85629 2.33022 8.63233 2.86563L8.69692 2.84063C6.24275 3.87605 4.32921 5.78959 3.31879 8.17813L3.29379 8.24376C2.75671 9.48932 2.4819 10.8321 2.4865 12.1886C2.48314 14.3332 3.16933 16.422 4.44379 18.1469L4.424 18.1198L3.14796 21.8833L7.05629 20.6396C8.68898 21.7393 10.6139 22.3242 12.5823 22.3188H12.6313H12.6292ZM12.6292 9.73058e-06H12.6636C14.3594 9.73058e-06 15.9719 0.35626 17.4292 0.998968L17.3532 0.96876C20.2959 2.21563 22.5907 4.51043 23.8073 7.37397L23.8375 7.45314C24.45 8.84584 24.8063 10.4698 24.8063 12.1771C24.8063 13.8844 24.45 15.5083 23.8073 16.9781L23.8375 16.9011C22.5907 19.8438 20.2959 22.1386 17.4323 23.3552L17.3532 23.3854C15.9709 23.9979 14.3584 24.3542 12.6625 24.3542H12.6271H12.6292H12.574C10.4292 24.3542 8.41567 23.7906 6.674 22.8042L6.73338 22.8354L-0.000999451 25L2.19588 18.4594C1.04912 16.573 0.44568 14.4065 0.452126 12.199C0.452126 10.4844 0.808376 8.85314 1.45108 7.37501L1.42088 7.45314C2.66775 4.51043 4.96254 2.21563 7.82608 0.998968L7.90525 0.96876C9.38477 0.324279 10.9821 -0.00561631 12.5959 9.73058e-06H12.6303H12.6282H12.6292Z" fill="#5B8C51"/>
</g>
<defs>
<clipPath id="clip0_28_2">
<rect width="25" height="25" fill="white"/>
</clipPath>
</defs>
</svg>
