<svg width="25" height="25" viewBox="0 0 25 25" fill="none" xmlns="http://www.w3.org/2000/svg">
<path d="M11.842 0.00363823C9.72818 0.02786 5.18359 0.357588 2.64172 2.57114C0.750949 4.34949 0.0907851 6.97872 0.0134094 10.2299C-0.050796 13.4694 -0.128172 19.5529 6.04954 21.2094V23.7323C6.04954 23.7323 6.01085 24.7418 6.71382 24.9489C7.57977 25.2091 8.07283 24.4324 8.89598 23.598L10.4311 21.9501C14.658 22.2837 17.8954 21.5149 18.2683 21.4008C19.126 21.1406 23.9571 20.5546 24.7465 14.4703C25.5565 8.18668 24.3522 4.2276 22.1783 2.43675H22.1651C21.509 1.86324 18.8725 0.0395802 12.9821 0.0192652C12.9821 0.0192652 12.545 -0.00886331 11.842 0.00285688V0.00363823ZM11.9145 1.77026C12.5145 1.76636 12.8792 1.79058 12.8792 1.79058C17.865 1.80308 20.2447 3.22747 20.8061 3.70722C22.6368 5.19647 23.5801 8.76566 22.8895 14.0116C22.2334 19.0982 18.3152 19.4201 17.59 19.6397C17.2814 19.7334 14.43 20.4007 10.8378 20.1811C10.8378 20.1811 8.16256 23.2456 7.32624 24.0347C7.19371 24.173 7.03896 24.2137 6.94019 24.1933C6.7986 24.1605 6.7558 23.9941 6.76403 23.7659L6.78955 19.5787C1.55022 18.2035 1.8589 13.0146 1.91488 10.3041C1.97908 7.59364 2.51495 5.37618 4.11021 3.87443C6.2578 2.03123 10.1167 1.78276 11.9128 1.77026H11.9145ZM12.3096 4.47997C12.1293 4.47606 11.9795 4.61827 11.9795 4.78938C11.9795 4.96441 12.1293 5.1027 12.3096 5.1027C13.96 5.07458 15.5511 5.6684 16.734 6.75916C17.93 7.86164 18.5128 9.34307 18.535 11.28C18.535 11.4511 18.6807 11.5933 18.8651 11.5933V11.5808C19.0454 11.5808 19.1952 11.4425 19.1952 11.2714C19.2767 9.42824 18.5564 7.63739 17.2056 6.31067C15.9026 5.10192 14.2514 4.47919 12.3096 4.47919V4.47997ZM7.97076 5.19647C7.73946 5.16365 7.4991 5.20897 7.29743 5.32226H7.28014C6.834 5.57073 6.41831 5.88405 6.02402 6.30285C5.72357 6.63258 5.56059 6.96622 5.51779 7.28735C5.49227 7.47878 5.50956 7.67021 5.56965 7.85304L5.59105 7.86555C5.92936 8.80941 6.37139 9.71734 6.91138 10.5721C7.60611 11.7723 8.46301 12.8834 9.45819 13.8764L9.48782 13.9171L9.53474 13.9499L9.56437 13.9827L9.59895 14.0108C10.6493 14.9594 11.8198 15.7728 13.0891 16.44C14.5378 17.1886 15.4169 17.5425 15.9446 17.6894V17.6972C16.0993 17.7418 16.2401 17.7621 16.3817 17.7621C16.8319 17.7293 17.2567 17.5589 17.5909 17.2698C18.0197 16.9034 18.358 16.501 18.6116 16.0736V16.0658C18.8643 15.6142 18.7787 15.1868 18.414 14.8977C17.6855 14.2913 16.892 13.7538 16.0557 13.2904C15.4943 13.0013 14.9239 13.1764 14.6926 13.4694L14.1995 14.0593C13.9468 14.3523 13.4875 14.3117 13.4875 14.3117L13.4743 14.3195C10.0492 13.4889 9.13552 10.1971 9.13552 10.1971C9.13552 10.1971 9.09271 9.74937 9.40962 9.52122L10.027 9.04929C10.3225 8.82113 10.5283 8.28044 10.2114 7.74678C9.72654 6.94903 9.16103 6.2005 8.52227 5.50822C8.38481 5.3457 8.18807 5.23553 7.96912 5.1949L7.97076 5.19647ZM12.8792 6.12471C12.4421 6.12471 12.4421 6.75135 12.8833 6.75135C13.9806 6.76775 15.0268 7.19906 15.7898 7.94759C16.4846 8.6758 16.8443 9.64467 16.776 10.6253C16.7801 10.7964 16.9258 10.9347 17.106 10.9347L17.1192 10.9511C17.2995 10.9511 17.4493 10.8089 17.4493 10.6378C17.4789 9.3962 17.0723 8.35467 16.2747 7.52019C15.4729 6.68571 14.3543 6.21769 12.9261 6.12471C12.9088 6.12471 12.8965 6.12471 12.8792 6.12471ZM13.42 7.80929C12.9697 7.79679 12.9524 8.43593 13.3986 8.44843C14.4835 8.50156 15.0103 9.02194 15.0795 10.0924C15.0836 10.2635 15.2293 10.3979 15.4054 10.3979H15.4186C15.603 10.3901 15.7487 10.2393 15.7355 10.0643C15.6581 8.66877 14.8564 7.88274 13.4332 7.81007C13.429 7.81007 13.4249 7.81007 13.42 7.81007V7.80929Z" fill="#5B8C51"/>
</svg>
