<svg width="25" height="14" viewBox="0 0 25 14" fill="none" xmlns="http://www.w3.org/2000/svg">
<path fill-rule="evenodd" clip-rule="evenodd" d="M24.4266 0.948C24.5995 0.402 24.4266 0 23.5985 0H20.8641C20.1683 0 19.8475 0.347 19.6735 0.73C19.6735 0.73 18.283 3.926 16.3132 6.002C15.6757 6.604 15.3861 6.795 15.0382 6.795C14.8643 6.795 14.6028 6.604 14.6028 6.057V0.948C14.6028 0.292 14.4112 0 13.832 0H9.53209C9.09773 0 8.83627 0.304 8.83627 0.593C8.83627 1.214 9.82167 1.358 9.92271 3.106V6.904C9.92271 7.737 9.76334 7.888 9.41543 7.888C8.48836 7.888 6.2332 4.677 4.89469 1.003C4.63532 0.288 4.37282 0 3.67388 0H0.93748C0.156247 0 0 0.347 0 0.73C0 1.412 0.927064 4.8 4.31762 9.281C6.57799 12.341 9.76021 14 12.6591 14C14.3976 14 14.6122 13.632 14.6122 12.997V10.684C14.6122 9.947 14.7768 9.8 15.3278 9.8C15.734 9.8 16.4288 9.992 18.0517 11.467C19.9058 13.216 20.211 14 21.2548 14H23.9891C24.7703 14 25.162 13.632 24.937 12.904C24.6891 12.18 23.8037 11.129 22.6297 9.882C21.9922 9.172 21.036 8.407 20.7454 8.024C20.3402 7.533 20.4558 7.314 20.7454 6.877C20.7454 6.877 24.0787 2.451 24.4255 0.948H24.4266Z" fill="#5B8C51"/>
</svg>
